<svg width="50" height="50" viewBox="0 0 50 50" fill="none" xmlns="http://www.w3.org/2000/svg">
<g clip-path="url(#clip0_1_337)">
<path d="M25 50C38.8071 50 50 38.8071 50 25C50 11.1929 38.8071 0 25 0C11.1929 0 0 11.1929 0 25C0 38.8071 11.1929 50 25 50Z" fill="#424242"/>
<path d="M27.6941 49.8552C38.4397 48.7035 47.1468 40.7442 49.4188 30.3746L33.2989 14.2547C33.2989 14.2547 20.1108 13.8903 15.3472 21.7252L22.367 28.7628L16.1159 38.3496L27.6941 49.8552Z" fill="#232323"/>
<path d="M35.3983 38.3495H16.1161V31.8408L28.4996 22.4655C30.07 21.2766 29.6915 19.6189 29.5382 19.1391C29.3905 18.677 28.7616 17.1645 26.8716 17.1094C26.8295 17.1082 26.7554 17.1075 26.7257 17.1073H24.5361C21.3106 17.1073 21.06 20.6418 21.06 21.7251H15.3474C15.3474 15.6427 19.1259 11.3947 24.5361 11.3947L26.758 11.3948C26.758 11.3948 26.9448 11.3965 27.0377 11.3991C30.7317 11.507 33.8488 13.8624 34.9796 17.3996C36.1249 20.9824 34.9349 24.7586 31.9479 27.02L24.5288 32.6369H35.3984V38.3495H35.3983Z" fill="#F8FFFB"/>
<path d="M31.9477 27.0199L25.3783 31.9938V24.8285L28.4995 22.4656C30.0695 21.2768 29.6913 19.6191 29.5385 19.1395C29.3908 18.6766 28.7614 17.1647 26.8713 17.1096C26.829 17.1087 26.7551 17.1077 26.7255 17.1077H25.3782V11.3951H26.7581C26.7581 11.3951 26.9442 11.397 27.0377 11.399C30.7312 11.5073 33.8485 13.8623 34.9793 17.4002C36.1248 20.9823 34.935 24.7586 31.9477 27.0199Z" fill="#D8D8D8"/>
<path d="M25.3792 32.6369H35.3989V38.3495H25.3792V32.6369Z" fill="#D8D8D8"/>
</g>
<defs>
<clipPath id="clip0_1_337">
<rect width="50" height="50" fill="white"/>
</clipPath>
</defs>
</svg>
