<svg width="50" height="50" viewBox="0 0 50 50" fill="none" xmlns="http://www.w3.org/2000/svg">
<g clip-path="url(#clip0_1_373)">
<path d="M25 50C38.8071 50 50 38.8071 50 25C50 11.1929 38.8071 0 25 0C11.1929 0 0 11.1929 0 25C0 38.8071 11.1929 50 25 50Z" fill="#07E5CA"/>
<path d="M25.2108 33.4376L21.9441 30.5402L18.3864 35.4599L31.9485 49.0207C40.3553 46.5931 46.9399 39.8724 49.1757 31.3859L31.9346 14.145L16.1582 18.4879L23.0847 25.3994L22.7307 26.9751L28.1715 32.2368C28.1715 32.2367 26.302 33.6394 25.2108 33.4376Z" fill="#00B59B"/>
<path d="M31.9347 14.1448C30.368 12.3988 27.7513 11.3564 24.935 11.3564C24.3643 11.3564 23.7918 11.4089 23.2336 11.5123L23.0616 11.544C21.348 11.8606 19.7955 12.6483 18.5719 13.8217C17.373 14.9723 16.572 16.4175 16.2555 18.0008L16.1582 18.4876L21.944 18.9254L22.0617 18.6213C22.3971 17.755 23.2055 17.1059 24.1714 16.9273L24.3434 16.8956C25.4346 16.694 26.5552 17.0621 27.2685 17.857C28.2143 18.9106 28.1198 20.6033 27.0621 21.5534C26.5498 22.0137 24.0279 22.5453 23.1891 22.5103L22.7308 22.4907V26.9749L23.1891 26.9552C24.0335 26.9198 26.55 27.4519 27.0622 27.9122C28.1198 28.8623 28.2143 30.5549 27.2684 31.6087C26.5552 32.4035 25.4345 32.7716 24.3433 32.57L24.1715 32.5382C23.2055 32.3596 22.3971 31.7105 22.0617 30.8443L21.944 30.5402L16.1582 30.978L16.2555 31.4648C16.5719 33.0481 17.3729 34.4932 18.572 35.6439C19.7954 36.8174 21.348 37.6049 23.0616 37.9215L23.2334 37.9533C23.7918 38.0567 24.3643 38.1091 24.935 38.1091C27.7513 38.1091 30.368 37.0668 31.9346 35.3209C34.5744 32.3793 34.45 27.8059 31.7093 24.7328C34.45 21.6596 34.5745 17.0863 31.9347 14.1448Z" fill="#F8FFFB"/>
<path d="M31.709 24.7326C34.4502 27.8058 34.5742 32.3791 31.9346 35.3215C30.3799 37.0529 27.792 38.093 25 38.1086V32.6232C25.8672 32.6066 26.6992 32.2443 27.2686 31.6086C28.2139 30.5549 28.1201 28.8625 27.0625 27.9123C26.7793 27.6584 25.8857 27.382 25 27.1916V22.2736C25.8857 22.0832 26.7793 21.8078 27.0625 21.5539C28.1201 20.6037 28.2139 18.9113 27.2686 17.8576C26.6992 17.2219 25.8672 16.8596 25 16.843V11.3576C27.792 11.3732 30.3799 12.4123 31.9346 14.1447C34.5742 17.0861 34.4502 21.6594 31.709 24.7326Z" fill="#D8D8D8"/>
</g>
<defs>
<clipPath id="clip0_1_373">
<rect width="50" height="50" fill="white"/>
</clipPath>
</defs>
</svg>
