<svg width="50" height="50" viewBox="0 0 50 50" fill="none" xmlns="http://www.w3.org/2000/svg">
<g clip-path="url(#clip0_1_306)">
<path d="M25 50C38.8071 50 50 38.8071 50 25C50 11.1929 38.8071 0 25 0C11.1929 0 0 11.1929 0 25C0 38.8071 11.1929 50 25 50Z" fill="#07E5CA"/>
<path d="M30.9623 49.2829C41.228 46.7709 49.0052 37.9206 49.9104 27.1146L34.4463 11.6506L19.493 13.2489L15.4856 26.2521L21.6319 32.2356L17.8489 36.2101L30.9623 49.2829Z" fill="#00B59B"/>
<path d="M22.8601 17.3146L22.3259 20.4455L24.5808 20.3391C27.1492 20.217 29.6873 20.9855 31.5447 22.7639C35.1267 26.1935 35.4314 31.8527 32.238 35.6467C30.3806 37.8537 27.6589 39.091 24.8357 39.091C24.2146 39.091 23.5886 39.0314 22.9656 38.9084L22.7673 38.8693C20.8884 38.4992 19.1873 37.5793 17.8484 36.2101C16.5388 34.8703 15.6677 33.1945 15.323 31.3556L21.0496 30.8937C21.4939 32.1174 22.5603 33.0558 23.863 33.3127L24.0613 33.3517C25.4919 33.634 26.9646 33.1154 27.9041 31.9992C29.1794 30.4846 29.0583 28.2248 27.6277 26.8547C26.8855 26.1437 25.8718 25.7658 24.8464 25.8127L15.4851 26.2521L18.1296 11.6506H34.4458V17.3146H22.8601Z" fill="#F8FFFB"/>
<path d="M31.5449 22.7639C35.127 26.1935 35.4316 31.8527 32.2383 35.6467C30.417 37.8107 27.7646 39.0432 25 39.0891V33.424C26.1104 33.3791 27.1699 32.8713 27.9043 31.9992C29.1797 30.4846 29.0586 28.2248 27.6279 26.8547C26.9229 26.1789 25.9727 25.8039 25 25.8088V20.3273C27.4238 20.3039 29.7881 21.0822 31.5449 22.7639Z" fill="#D8D8D8"/>
<path d="M25 11.6506H34.4463V17.3146H25V11.6506Z" fill="#D8D8D8"/>
</g>
<defs>
<clipPath id="clip0_1_306">
<rect width="50" height="50" fill="white"/>
</clipPath>
</defs>
</svg>
