<svg width="50" height="50" viewBox="0 0 50 50" fill="none" xmlns="http://www.w3.org/2000/svg">
<g clip-path="url(#clip0_1_597)">
<path d="M7.4139 26.147H5.01735C4.60497 26.1477 4.25087 26.4404 4.17252 26.8452L0.396658 46.2246C0.298685 46.7308 0.432432 47.2543 0.761216 47.6515C1.09 48.0487 1.57931 48.2779 2.09493 48.2763H20.6898C20.6898 49.2246 22.6208 50.0004 25.0001 50.0004C27.3794 50.0004 29.3105 49.2246 29.3105 48.2763H47.9053C48.4209 48.2779 48.9102 48.0487 49.239 47.6515C49.5678 47.2543 49.7015 46.7308 49.6036 46.2246L45.8277 26.8452C45.7493 26.4404 45.3952 26.1477 44.9829 26.147H7.4139Z" fill="#E64C3C"/>
<path d="M25.0001 28.6551V44.8275C23.7389 44.2797 22.4244 43.8637 21.0777 43.5861C15.9584 42.4731 10.6351 42.7439 5.65525 44.3706C5.36901 44.4579 5.05798 44.3918 4.832 44.1956C4.60603 43.9994 4.49691 43.7007 4.54318 43.4051L7.41387 26.1465L7.65525 24.6896C7.71703 24.3198 8.00894 24.0314 8.37939 23.974C8.96559 23.8878 9.56904 23.8016 10.1725 23.7327C11.2259 25.7804 13.3352 27.0679 15.638 27.0689C15.7932 27.0689 15.9397 27.0602 16.0863 27.0516C16.6603 27.0068 17.2257 26.8851 17.7673 26.6896C17.7691 26.7079 17.775 26.7256 17.7846 26.7413C18.4296 28.5479 20.1421 29.7529 22.0604 29.7499C23.1406 29.7535 24.1854 29.3644 25.0001 28.6551Z" fill="#F5EFCA"/>
<path d="M44.3448 44.3707C39.3649 42.7441 34.0416 42.4733 28.9224 43.5862C27.5757 43.8638 26.2612 44.2798 25 44.8276V28.6552C25.1813 28.507 25.3487 28.3425 25.5 28.1638C26.3613 28.5064 27.28 28.6819 28.2069 28.6811H28.2586C28.3034 29.2975 28.5383 29.8848 28.931 30.3621C29.7678 31.1893 30.8137 31.7733 31.9569 32.0517C32.7864 32.3166 33.5264 32.8059 34.0948 33.4655C34.6016 34.0933 35.4602 34.3141 36.2069 34.0086C36.8642 33.7247 37.2908 33.0781 37.2931 32.3621C37.294 32.1748 37.2649 31.9885 37.2069 31.8104C37.1207 31.5431 37.0259 31.2759 36.9138 31.0173C36.6976 30.4831 36.4137 29.979 36.069 29.5173C37.7787 28.5926 38.9794 26.9452 39.3362 25.0345C39.3621 25 39.3966 24.9655 39.4224 24.9311C39.7174 24.584 39.9586 24.1946 40.1379 23.7759C40.6379 23.8362 41.1293 23.8966 41.6207 23.9742C41.9911 24.0315 42.283 24.3199 42.3448 24.6897L42.5862 26.1466L45.4569 43.4052C45.5032 43.7009 45.3941 43.9995 45.1681 44.1957C44.9421 44.3919 44.6311 44.458 44.3448 44.3707Z" fill="#F9EAB0"/>
<path d="M29.3104 48.2753C29.3104 49.2236 27.3793 49.9995 25 49.9995C22.6207 49.9995 20.6897 49.2236 20.6897 48.2753L21.0776 43.5857C22.4244 43.8633 23.7388 44.2793 25 44.8271C26.2612 44.2793 27.5757 43.8633 28.9224 43.5857L29.3104 48.2753Z" fill="#C03A2B"/>
<path d="M40.5174 21.9739C40.5166 22.5942 40.3875 23.2076 40.1381 23.7756C39.9588 24.1943 39.7176 24.5837 39.4226 24.9307C39.3968 24.9652 39.3623 24.9997 39.3364 25.0342C38.9796 26.9449 37.7789 28.5923 36.0692 29.517C36.4139 29.9787 36.6978 30.4828 36.914 31.017C37.0261 31.2756 37.1209 31.5428 37.2071 31.8101C37.2651 31.9882 37.2942 32.1745 37.2933 32.3618C37.291 33.0778 36.8644 33.7244 36.2071 34.0083C35.4604 34.3138 34.6018 34.093 34.095 33.4652C33.5266 32.8056 32.7866 32.3163 31.9571 32.0514C30.8139 31.773 29.768 31.189 28.9312 30.3618C28.5385 29.8845 28.3036 29.2972 28.2588 28.6807H28.2071C27.2802 28.6816 26.3615 28.5061 25.5002 28.1635C25.3489 28.3422 25.1815 28.5067 25.0002 28.6549C24.1855 29.3642 23.1408 29.7533 22.0606 29.7497C20.1422 29.7527 18.4297 28.5477 17.7847 26.7411C17.7751 26.7254 17.7692 26.7077 17.7674 26.6894C17.2259 26.8849 16.6605 27.0066 16.0864 27.0514C15.9399 27.0601 15.7933 27.0687 15.6381 27.0687C13.3082 27.0671 11.1786 25.7509 10.1351 23.6677C9.09171 21.5844 9.31305 19.0907 10.7071 17.2239C10.6034 16.9423 10.5509 16.6445 10.5519 16.3445C10.5467 15.0705 11.4416 13.97 12.6899 13.7152C12.6945 13.7105 12.7006 13.7075 12.7071 13.7066C12.6985 13.6032 12.6899 13.4997 12.6899 13.3876C12.6887 12.9095 12.7886 12.4365 12.983 11.9997C13.533 10.7276 14.7867 9.90424 16.1726 9.90489C16.6953 9.9024 17.2115 10.0204 17.6812 10.2497C18.599 8.70455 20.2634 7.75768 22.0606 7.75833C23.2936 7.75386 24.4848 8.20517 25.4054 9.02558C25.9338 8.17316 26.8951 7.68838 27.8947 7.77017C28.8942 7.85195 29.7639 8.48653 30.1468 9.41351C30.3929 9.38601 30.6404 9.37162 30.8881 9.3704C34.2283 9.37593 37.0079 11.9383 37.2847 15.267H37.3106C38.0208 15.267 38.7019 15.5497 39.2033 16.0527C39.7047 16.5558 39.9853 17.2377 39.983 17.948C39.9813 18.4124 39.8627 18.869 39.6381 19.2756C40.2102 20.0589 40.5182 21.0039 40.5174 21.9739Z" fill="#FB7B76"/>
<path d="M25 2.58621C24.5239 2.58621 24.1379 2.20025 24.1379 1.72414V0.862069C24.1379 0.385961 24.5239 0 25 0C25.4761 0 25.8621 0.385961 25.8621 0.862069V1.72414C25.8621 2.20025 25.4761 2.58621 25 2.58621Z" fill="#F0C419"/>
<path d="M38.8941 8.51992C38.5455 8.51984 38.2313 8.30981 38.0979 7.98772C37.9645 7.66564 38.0382 7.29491 38.2847 7.04837L39.1467 6.1863C39.3632 5.9622 39.6837 5.87232 39.9851 5.95121C40.2865 6.03011 40.5219 6.26549 40.6008 6.56689C40.6797 6.8683 40.5898 7.18882 40.3657 7.40526L39.5036 8.26733C39.342 8.42901 39.1228 8.51987 38.8941 8.51992Z" fill="#F0C419"/>
<path d="M11.1061 8.51992C10.8775 8.51987 10.6582 8.42901 10.4966 8.26733L9.63454 7.40526C9.41044 7.18882 9.32056 6.8683 9.39946 6.56689C9.47835 6.26549 9.71373 6.03011 10.0151 5.95121C10.3165 5.87232 10.6371 5.9622 10.8535 6.1863L11.7156 7.04837C11.962 7.29491 12.0358 7.66564 11.9024 7.98772C11.769 8.30981 11.4547 8.51984 11.1061 8.51992Z" fill="#F0C419"/>
<path d="M17.7423 4.89185C17.3936 4.89194 17.0793 4.68202 16.9457 4.35995L15.9561 1.9703C15.8303 1.68437 15.869 1.35274 16.0572 1.10348C16.2455 0.854206 16.5539 0.726301 16.8634 0.769151C17.1728 0.812001 17.4349 1.0189 17.5483 1.30996L18.5388 3.69961C18.6267 3.91096 18.627 4.14859 18.5395 4.36011C18.452 4.57164 18.284 4.73968 18.0725 4.8272C17.9676 4.86992 17.8555 4.89188 17.7423 4.89185Z" fill="#F0C419"/>
<path d="M32.2578 4.89185C32.1446 4.89161 32.0324 4.86936 31.9277 4.82633C31.7164 4.73881 31.5485 4.57091 31.461 4.35959C31.3736 4.14828 31.3737 3.91086 31.4613 3.69961L32.4518 1.30996C32.5653 1.0189 32.8273 0.812001 33.1368 0.769151C33.4462 0.726301 33.7546 0.854206 33.9429 1.10348C34.1312 1.35274 34.1699 1.68437 34.0441 1.9703L33.0544 4.35995C32.9209 4.68202 32.6065 4.89194 32.2578 4.89185Z" fill="#F0C419"/>
<path d="M42.5218 15.1568C42.1095 15.1581 41.7541 14.8673 41.6736 14.463C41.5932 14.0587 41.8103 13.654 42.1916 13.4974L44.5813 12.5077C44.8658 12.3899 45.1916 12.4329 45.436 12.6204C45.6803 12.808 45.806 13.1116 45.7657 13.417C45.7254 13.7223 45.5253 13.983 45.2407 14.1008L42.8519 15.0905C42.7473 15.1341 42.6351 15.1566 42.5218 15.1568Z" fill="#F0C419"/>
<path d="M7.47864 15.1568C7.36529 15.1566 7.25309 15.1341 7.14847 15.0905L4.75967 14.1008C4.47509 13.983 4.27498 13.7223 4.23471 13.417C4.19444 13.1116 4.32014 12.808 4.56445 12.6204C4.80876 12.4329 5.13457 12.3899 5.41916 12.5077L7.80881 13.4974C8.19014 13.654 8.4072 14.0587 8.32676 14.463C8.24632 14.8673 7.89088 15.1581 7.47864 15.1568Z" fill="#F0C419"/>
<path d="M39.4226 24.931C39.3967 24.9654 39.3623 24.9999 39.3364 25.0344C39.1845 25.8646 38.8679 26.6561 38.4054 27.362C37.9539 27.4901 37.4867 27.554 37.0174 27.5517C36.1631 27.5492 35.3214 27.3454 34.5605 26.9568C34.2004 26.7641 33.8622 26.5329 33.5519 26.2672C33.2081 26.4003 32.843 26.4704 32.4743 26.4741C31.3356 26.4799 30.2926 25.8381 29.7847 24.8189C29.6461 24.5432 29.6651 24.2146 29.8345 23.9567C30.0039 23.6989 30.298 23.551 30.606 23.5688C30.9141 23.5866 31.1892 23.7674 31.3278 24.043C31.498 24.3699 31.7997 24.6086 32.1569 24.6991C32.5142 24.7897 32.8931 24.7235 33.1985 24.5172C33.5433 24.2818 33.7497 23.8915 33.7502 23.4741C33.7515 23.2742 33.7072 23.0767 33.6209 22.8965C33.4473 22.4796 33.6248 21.9995 34.0277 21.7958C34.4307 21.592 34.9226 21.7337 35.1554 22.1206C35.365 22.541 35.4742 23.0043 35.4743 23.4741C35.4674 24.0764 35.278 24.6625 34.9312 25.1551C35.0692 25.2499 35.2071 25.3448 35.345 25.4223C35.8623 25.6886 36.4357 25.8275 37.0174 25.8275C37.9017 25.8324 38.7573 25.5135 39.4226 24.931Z" fill="#FF5364"/>
<path d="M28.8793 21.5465C29.9961 20.777 30.7641 19.5979 31.0164 18.2654C31.0806 17.9604 30.9751 17.6444 30.7405 17.4391C30.5059 17.2339 30.1787 17.1712 29.8849 17.2753C29.5911 17.3795 29.3763 17.6341 29.3233 17.9413C29.1543 18.8304 28.6413 19.6169 27.8957 20.1301C26.4615 21.0961 24.5379 20.8768 23.3578 19.6128C23.0367 19.2605 22.4907 19.2352 22.1384 19.5564C21.7861 19.8775 21.7608 20.4234 22.0819 20.7758C22.8132 21.5832 23.7797 22.1405 24.8449 22.3689C24.3619 23.0477 23.5797 23.45 22.7466 23.4482C22.2705 23.4482 21.8845 23.8341 21.8845 24.3103C21.8845 24.7864 22.2705 25.1723 22.7466 25.1723C24.5312 25.1794 26.1325 24.0772 26.763 22.4077C27.5236 22.2812 28.2466 21.9871 28.8793 21.5465Z" fill="#FF5364"/>
<path d="M36.9139 31.0178C36.2802 31.3412 35.5994 31.5623 34.8967 31.673C34.8511 31.6802 34.8049 31.683 34.7587 31.6816C34.3047 31.6858 33.9253 31.3371 33.8911 30.8844C33.857 30.4316 34.1799 30.03 34.6294 29.9661C35.1292 29.8904 35.6147 29.7393 36.0691 29.5178C36.4138 29.9796 36.6977 30.4837 36.9139 31.0178Z" fill="#FF5364"/>
<path d="M17.707 25.0001C17.6635 25.242 17.6404 25.4871 17.638 25.7329C17.6363 26.0563 17.6798 26.3784 17.7673 26.6898C17.2258 26.8853 16.6603 27.007 16.0863 27.0518C15.976 26.6295 15.9181 26.1952 15.9139 25.7587C14.3954 25.5931 13.2443 24.3121 13.2415 22.7846C13.2386 22.3045 13.6235 21.9119 14.1035 21.9053C14.3311 21.9039 14.5499 21.9931 14.7116 22.1532C14.8733 22.3133 14.9647 22.5312 14.9656 22.7587V22.7846C14.9785 23.4658 15.5178 24.0202 16.1984 24.0518C16.3176 23.663 16.4825 23.2897 16.6897 22.9398C16.8055 22.7421 16.9962 22.5995 17.2185 22.5443C17.4408 22.4891 17.676 22.5261 17.8708 22.6467C18.2761 22.8972 18.4064 23.4261 18.1639 23.8363C17.945 24.1947 17.7904 24.5885 17.707 25.0001Z" fill="#FF5364"/>
<path d="M30.526 30.0433C30.008 30.209 29.4731 30.316 28.9312 30.3623C28.5385 29.885 28.3036 29.2977 28.2588 28.6812C28.3422 28.6828 28.4257 28.6799 28.5088 28.6726C29.0207 28.6401 29.5271 28.5475 30.0174 28.3967C30.3147 28.2948 30.644 28.3627 30.8767 28.574C31.1094 28.7853 31.2086 29.1066 31.1356 29.4123C31.0627 29.718 30.8291 29.9598 30.526 30.0433Z" fill="#FF5364"/>
<path d="M23.1037 14.6553C23.1037 14.1792 22.7178 13.7932 22.2416 13.7932C20.0525 13.7956 18.2785 15.5696 18.2761 17.7587C18.2761 18.2348 18.6621 18.6208 19.1382 18.6208C19.6143 18.6208 20.0003 18.2348 20.0003 17.7587C20.0003 17.1643 20.2364 16.5942 20.6567 16.1738C21.0771 15.7535 21.6472 15.5174 22.2416 15.5174C22.7178 15.5174 23.1037 15.1314 23.1037 14.6553Z" fill="#FF5364"/>
<path d="M11.8519 19.5028C11.6953 19.503 11.5417 19.4601 11.4079 19.3787C10.6971 18.9497 10.1592 18.285 9.88809 17.5002C9.75695 17.1272 9.69019 16.7345 9.69068 16.339C9.69067 14.3853 11.2714 12.7999 13.2252 12.7942C14.3446 12.7899 15.3986 13.3216 16.0605 14.2244C16.2442 14.4717 16.282 14.7982 16.1597 15.081C16.0374 15.3638 15.7735 15.5598 15.4675 15.5952C15.1614 15.6307 14.8597 15.5002 14.676 15.2528C14.3381 14.7918 13.8002 14.5201 13.2286 14.5218C12.4126 14.5264 11.6993 15.073 11.4827 15.8597C11.266 16.6464 11.599 17.4812 12.2976 17.9028C12.6297 18.1026 12.7878 18.4994 12.6838 18.8728C12.5799 19.2462 12.2395 19.5044 11.8519 19.5037V19.5028Z" fill="#FF5364"/>
<path d="M30.3511 11.3029C29.875 11.3029 29.4891 10.9169 29.4891 10.4408C29.4891 9.43933 28.6772 8.62746 27.6757 8.62746C26.6742 8.62746 25.8623 9.43933 25.8623 10.4408C25.8623 10.9169 25.4764 11.3029 25.0003 11.3029C24.5241 11.3029 24.1382 10.9169 24.1382 10.4408C24.1382 8.48711 25.722 6.90332 27.6757 6.90332C29.6294 6.90332 31.2132 8.48711 31.2132 10.4408C31.2132 10.6695 31.1224 10.8887 30.9607 11.0504C30.799 11.2121 30.5798 11.3029 30.3511 11.3029Z" fill="#FF5364"/>
<path d="M38.4373 21.2426C38.037 21.2387 37.6921 20.9598 37.6046 20.5692C37.517 20.1786 37.7098 19.7791 38.0701 19.6047C38.4136 19.4433 38.6988 19.1795 38.8864 18.8495C39.325 18.1021 39.1724 17.1488 38.5225 16.5756C37.8726 16.0024 36.9076 15.9702 36.2209 16.4987C35.84 16.7843 35.2997 16.7071 35.014 16.3263C34.7284 15.9454 34.8055 15.405 35.1864 15.1194C35.7897 14.6626 36.5246 14.4134 37.2813 14.409C38.9468 14.3977 40.3954 15.5477 40.7623 17.1724C41.1291 18.7971 40.3151 20.4579 38.8063 21.1633C38.6908 21.217 38.5647 21.2442 38.4373 21.2426Z" fill="#FF5364"/>
</g>
<defs>
<clipPath id="clip0_1_597">
<rect width="50" height="50" fill="white"/>
</clipPath>
</defs>
</svg>
