<svg width="60" height="60" viewBox="0 0 60 60" fill="none" xmlns="http://www.w3.org/2000/svg">
<circle cx="30" cy="30" r="30" fill="#FF6652"/>
<g clip-path="url(#clip0_1_505)">
<path d="M38.0245 33.2741C37.1548 32.4043 36.1719 31.7043 35.1325 31.174C34.9678 31.0927 34.8294 30.9667 34.7331 30.8103C34.6368 30.654 34.5865 30.4737 34.588 30.2901L34.8708 27.7869C31.9151 26.7404 28.2382 26.6697 25.1693 27.7445L25.3744 30.2972C25.3673 30.6861 25.1481 31.0184 24.8229 31.1881C23.7763 31.7114 22.8005 32.4185 21.9308 33.2882C21.549 33.6701 20.9126 33.6701 20.5307 33.2882L18.0841 30.8416C17.7023 30.4598 17.4124 29.8305 17.9427 29.3001C24.5117 22.7311 35.4365 22.7382 41.9985 29.3001C42.5005 29.8022 42.253 30.4457 41.8641 30.8346L39.4246 33.2741C39.0428 33.6559 38.4064 33.6559 38.0245 33.2741Z" fill="white"/>
</g>
<defs>
<clipPath id="clip0_1_505">
<rect width="24" height="24" fill="white" transform="matrix(0.707107 0.707107 0.707107 -0.707107 13 30.0002)"/>
</clipPath>
</defs>
</svg>
