<svg width="60" height="60" viewBox="0 0 60 60" fill="none" xmlns="http://www.w3.org/2000/svg">
<circle cx="30" cy="30" r="30" fill="#9C4DF4"/>
<path d="M34.9999 31.41L30.7099 27.17C30.617 27.0763 30.5064 27.0019 30.3845 26.9511C30.2627 26.9003 30.132 26.8742 29.9999 26.8742C29.8679 26.8742 29.7372 26.9003 29.6154 26.9511C29.4935 27.0019 29.3829 27.0763 29.2899 27.17L25.0499 31.41C24.9562 31.503 24.8818 31.6136 24.8311 31.7354C24.7803 31.8573 24.7542 31.988 24.7542 32.12C24.7542 32.252 24.7803 32.3827 24.8311 32.5046C24.8818 32.6264 24.9562 32.737 25.0499 32.83C25.2373 33.0163 25.4908 33.1208 25.7549 33.1208C26.0191 33.1208 26.2726 33.0163 26.4599 32.83L29.9999 29.29L33.5399 32.83C33.7262 33.0147 33.9776 33.1189 34.2399 33.12C34.3716 33.1208 34.502 33.0955 34.6239 33.0458C34.7457 32.996 34.8565 32.9227 34.9499 32.83C35.047 32.7404 35.1254 32.6324 35.1805 32.5123C35.2356 32.3923 35.2664 32.2625 35.271 32.1304C35.2757 31.9984 35.2541 31.8667 35.2076 31.7431C35.161 31.6194 35.0905 31.5062 34.9999 31.41Z" fill="white"/>
</svg>
