<svg width="16" height="12" viewBox="0 0 16 12" fill="none" xmlns="http://www.w3.org/2000/svg">
<path d="M15.4403 5.7C13.9253 2.1825 11.0753 0 8.00029 0C4.92529 0 2.07529 2.1825 0.560294 5.7C0.518997 5.79462 0.497681 5.89676 0.497681 6C0.497681 6.10324 0.518997 6.20537 0.560294 6.3C2.07529 9.8175 4.92529 12 8.00029 12C11.0753 12 13.9253 9.8175 15.4403 6.3C15.4816 6.20537 15.5029 6.10324 15.5029 6C15.5029 5.89676 15.4816 5.79462 15.4403 5.7ZM8.00029 10.5C5.62279 10.5 3.37279 8.7825 2.07529 6C3.37279 3.2175 5.62279 1.5 8.00029 1.5C10.3778 1.5 12.6278 3.2175 13.9253 6C12.6278 8.7825 10.3778 10.5 8.00029 10.5ZM8.00029 3C7.40695 3 6.82693 3.17595 6.33358 3.50559C5.84024 3.83524 5.45572 4.30377 5.22866 4.85195C5.00159 5.40013 4.94218 6.00333 5.05794 6.58527C5.17369 7.16721 5.45942 7.70176 5.87897 8.12132C6.29853 8.54088 6.83308 8.8266 7.41502 8.94236C7.99697 9.05811 8.60017 8.9987 9.14834 8.77164C9.69652 8.54458 10.1651 8.16006 10.4947 7.66671C10.8243 7.17336 11.0003 6.59334 11.0003 6C11.0003 5.20435 10.6842 4.44129 10.1216 3.87868C9.55901 3.31607 8.79594 3 8.00029 3ZM8.00029 7.5C7.70362 7.5 7.41361 7.41203 7.16694 7.2472C6.92027 7.08238 6.72801 6.84811 6.61448 6.57402C6.50094 6.29994 6.47124 5.99834 6.52912 5.70736C6.58699 5.41639 6.72986 5.14912 6.93963 4.93934C7.14941 4.72956 7.41669 4.5867 7.70766 4.52882C7.99863 4.47094 8.30023 4.50065 8.57432 4.61418C8.84841 4.72771 9.08268 4.91997 9.2475 5.16664C9.41232 5.41332 9.50029 5.70333 9.50029 6C9.50029 6.39782 9.34226 6.77935 9.06096 7.06066C8.77965 7.34196 8.39812 7.5 8.00029 7.5Z" fill="#5D5A6F"/>
</svg>
