<svg width="71" height="70" viewBox="0 0 71 70" fill="none" xmlns="http://www.w3.org/2000/svg">
<rect x="0.333984" width="70" height="70" rx="10" fill="#F8F2FF"/>
<path d="M36.6725 28.2359C35.9284 28.9784 34.7224 28.9784 33.9783 28.2359C33.2344 27.4934 33.2344 26.2895 33.9783 25.547C34.7224 24.8045 35.9284 24.8045 36.6725 25.547C37.4163 26.2895 37.4163 27.4934 36.6725 28.2359Z" fill="#9C4DF4"/>
<path d="M39.2749 31.1168C39.0428 31.1168 38.8107 31.0282 38.634 30.8508C38.2806 30.497 38.2813 29.9236 38.6352 29.5705C39.3523 28.8547 39.7471 27.9033 39.7471 26.8914C39.7471 25.8795 39.3523 24.9281 38.6352 24.2123C38.2813 23.8589 38.2806 23.2858 38.634 22.9317C38.9872 22.5779 39.5605 22.5772 39.9144 22.9306C40.9744 23.9885 41.558 25.395 41.558 26.8914C41.558 28.3876 40.9744 29.7943 39.9144 30.8522C39.7377 31.0287 39.5063 31.1168 39.2749 31.1168Z" fill="#9C4DF4"/>
<path d="M41.323 33.7826C41.0909 33.7826 40.8588 33.694 40.6821 33.5169C40.3287 33.1628 40.3294 32.5897 40.6833 32.2363C42.1138 30.8085 42.9018 28.9104 42.9018 26.8914C42.9018 24.8724 42.1138 22.9743 40.6833 21.5466C40.3294 21.1932 40.3287 20.6201 40.6821 20.266C41.0355 19.9121 41.6086 19.9114 41.9625 20.2648C43.7359 22.0348 44.7127 24.3881 44.7125 26.8914C44.7125 29.3947 43.7359 31.7483 41.9625 33.5182C41.7858 33.6945 41.5544 33.7826 41.323 33.7826Z" fill="#9C4DF4"/>
<path d="M31.3715 31.1163C31.1401 31.1163 30.9087 31.0282 30.7317 30.8517C29.6718 29.7938 29.0881 28.3871 29.0881 26.8909C29.0881 25.3945 29.6718 23.988 30.7317 22.9301C31.0856 22.5767 31.6589 22.5772 32.0121 22.9313C32.3655 23.2851 32.3648 23.8585 32.011 24.2119C31.2939 24.9276 30.8991 25.879 30.8991 26.8909C30.8991 27.9028 31.2939 28.8543 32.011 29.57C32.3648 29.9232 32.3655 30.4965 32.0121 30.8504C31.8354 31.0275 31.6033 31.1163 31.3715 31.1163Z" fill="#9C4DF4"/>
<path d="M29.3233 33.7835C29.0917 33.7835 28.8603 33.6954 28.6836 33.5189C26.9102 31.749 25.9336 29.3956 25.9336 26.8923C25.9336 24.3888 26.9102 22.0355 28.6836 20.2655C29.0375 19.9123 29.6108 19.9128 29.964 20.2669C30.3174 20.6207 30.3167 21.1939 29.9628 21.5472C28.5323 22.975 27.7443 24.8731 27.7443 26.8921C27.7443 28.9111 28.5323 30.8094 29.9628 32.2372C30.3167 32.5906 30.3174 33.1637 29.964 33.5178C29.7873 33.6949 29.5552 33.7835 29.3233 33.7835Z" fill="#9C4DF4"/>
<path d="M47.2566 35.3479H23.3896C22.2197 35.3479 21.2715 36.2962 21.2715 37.4657V47.8819C21.2715 49.0517 22.2197 50 23.3896 50H47.2564C48.4262 50 49.3744 49.0517 49.3744 47.8819V37.4657C49.3744 36.2962 48.4262 35.3479 47.2566 35.3479ZM28.2366 47.2825H24.9006C24.4007 47.2825 23.9954 46.8771 23.9954 46.377V38.9709C23.9954 38.471 24.4007 38.0654 24.9006 38.0654C25.4007 38.0654 25.8061 38.4708 25.8061 38.9709V45.4715H28.2366C28.7367 45.4715 29.142 45.8769 29.142 46.377C29.142 46.8771 28.7367 47.2825 28.2366 47.2825ZM31.9472 46.377C31.9472 46.8771 31.5418 47.2825 31.0417 47.2825C30.5416 47.2825 30.1363 46.8771 30.1363 46.377V38.9709C30.1363 38.471 30.5416 38.0654 31.0417 38.0654C31.5418 38.0654 31.9472 38.4708 31.9472 38.9709V46.377ZM39.5653 39.2327L37.3293 46.6386C37.3291 46.6393 37.3289 46.64 37.3287 46.6407C37.0858 47.4695 35.8478 47.4491 35.5965 46.6407C35.5963 46.64 35.596 46.6393 35.5958 46.6386L33.3599 39.2327C33.2154 38.7539 33.4862 38.2487 33.965 38.1041C34.4434 37.9597 34.949 38.2304 35.0934 38.7093L36.4626 43.2441L37.8317 38.7093C37.9764 38.2304 38.4815 37.9594 38.9603 38.1041C39.4389 38.2487 39.7099 38.7539 39.5653 39.2327ZM45.1356 41.3022C45.6357 41.3022 46.041 41.7076 46.041 42.2077C46.041 42.7076 45.6357 43.1132 45.1356 43.1132H42.5661V45.4715H45.6233C46.1234 45.4715 46.5288 45.8769 46.5288 46.377C46.5288 46.8771 46.1234 47.2825 45.6233 47.2825H41.6607C41.1606 47.2825 40.7552 46.8771 40.7552 46.377V38.9709C40.7552 38.471 41.1606 38.0654 41.6607 38.0654H45.7453C46.2452 38.0654 46.6508 38.4708 46.6508 38.9709C46.6508 39.471 46.2452 39.8763 45.7453 39.8763H42.5659V41.3022H45.1356Z" fill="#9C4DF4"/>
</svg>
