<svg width="25" height="30" viewBox="0 0 25 30" fill="none" xmlns="http://www.w3.org/2000/svg">
<rect width="25" height="30" rx="5" fill="#FF6652"/>
<path d="M5.75345 8.12427C5.75297 8.12427 5.75242 8.12427 5.75194 8.12427C5.58169 8.12427 5.42157 8.19063 5.30066 8.31124C5.17842 8.43318 5.11108 8.59554 5.11108 8.76839V18.4269C5.11108 18.7811 5.40036 19.0699 5.756 19.0708C7.25527 19.0744 9.76716 19.3869 11.5 21.2003V11.0924C11.5 10.9723 11.4694 10.8595 11.4115 10.7662C9.98923 8.47578 7.25612 8.12778 5.75345 8.12427Z" fill="white"/>
<path d="M18.8889 18.427V8.76839C18.8889 8.59554 18.8215 8.43318 18.6993 8.31124C18.5784 8.19063 18.4181 8.12427 18.2481 8.12427C18.2475 8.12427 18.247 8.12427 18.2465 8.12427C16.7439 8.12784 14.0108 8.47584 12.5885 10.7663C12.5306 10.8596 12.5 10.9724 12.5 11.0925V21.2003C14.2329 19.3869 16.7447 19.0744 18.244 19.0708C18.5996 19.0699 18.8889 18.7811 18.8889 18.427Z" fill="white"/>
<path d="M20.3559 10.3518H19.8889V18.427C19.8889 19.3314 19.1521 20.0687 18.2464 20.071C16.9747 20.074 14.8779 20.3227 13.3928 21.7282C15.9612 21.0994 18.6687 21.5081 20.2118 21.8598C20.4044 21.9037 20.6035 21.8583 20.7579 21.7353C20.9117 21.6126 20.9999 21.4291 20.9999 21.2322V10.9958C21 10.6407 20.711 10.3518 20.3559 10.3518Z" fill="white"/>
<path d="M4.11103 18.427V10.3518H3.644C3.28897 10.3518 3 10.6407 3 10.9958V21.232C3 21.429 3.08824 21.6124 3.24206 21.7351C3.3963 21.8581 3.59521 21.9036 3.78818 21.8596C5.33122 21.5079 8.0388 21.0992 10.6071 21.728C9.12208 20.3226 7.02523 20.074 5.75352 20.0709C4.84788 20.0687 4.11103 19.3314 4.11103 18.427Z" fill="white"/>
</svg>
