<svg width="22" height="18" viewBox="0 0 22 18" fill="none" xmlns="http://www.w3.org/2000/svg">
<g clip-path="url(#clip0_1_46)">
<path d="M6.9462 17.5274C15.1933 17.5274 19.7033 10.8123 19.7033 4.98925C19.7033 4.79852 19.6993 4.60865 19.6906 4.41964C20.5661 3.79762 21.327 3.02139 21.9271 2.13775C21.1238 2.48871 20.2592 2.72497 19.3523 2.8315C20.278 2.28595 20.9887 1.42294 21.324 0.394142C20.4577 0.898891 19.4983 1.26575 18.4769 1.46381C17.6587 0.607268 16.4939 0.0715332 15.2041 0.0715332C12.728 0.0715332 10.7202 2.04502 10.7202 4.47762C10.7202 4.82343 10.7595 5.15978 10.8364 5.48242C7.11 5.29813 3.80568 3.54461 1.59424 0.878268C1.20918 1.5295 0.98715 2.28597 0.98715 3.09314C0.98715 4.62199 1.77871 5.97167 2.9824 6.76125C2.2468 6.73891 1.55578 6.54045 0.951803 6.2101C0.951143 6.22859 0.951141 6.24662 0.951141 6.26638C0.951141 8.40052 2.49664 10.1824 4.54822 10.5861C4.17146 10.6871 3.77506 10.7412 3.36594 10.7412C3.07747 10.7412 2.79643 10.7133 2.52326 10.6617C3.09407 12.4127 4.74929 13.6868 6.71169 13.7224C5.17712 14.9046 3.24398 15.6087 1.14298 15.6087C0.781523 15.6087 0.424438 15.5885 0.0734863 15.5477C2.05781 16.7977 4.41402 17.5271 6.94644 17.5271" fill="#0A033C"/>
</g>
<defs>
<clipPath id="clip0_1_46">
<rect width="22" height="17.6" fill="white"/>
</clipPath>
</defs>
</svg>
